<svg id="visual" viewBox="0 0 900 450" width="900" height="450" xmlns="http://www.w3.org/2000/svg"
    xmlns:xlink="http://www.w3.org/1999/xlink" version="1.1">
    <path id='layer1'
        d="M0 48L21.5 49.8C43 51.7 86 55.3 128.8 52.7C171.7 50 214.3 41 257.2 36.2C300 31.3 343 30.7 385.8 31C428.7 31.3 471.3 32.7 514.2 35C557 37.3 600 40.7 642.8 44.3C685.7 48 728.3 52 771.2 52.8C814 53.7 857 51.3 878.5 50.2L900 49L900 0L878.5 0C857 0 814 0 771.2 0C728.3 0 685.7 0 642.8 0C600 0 557 0 514.2 0C471.3 0 428.7 0 385.8 0C343 0 300 0 257.2 0C214.3 0 171.7 0 128.8 0C86 0 43 0 21.5 0L0 0Z"
        fill="#FF0066" stroke-linecap="round" stroke-linejoin="miter"></path>
        
</svg>